<svg xmlns="http://www.w3.org/2000/svg" fill="#000000" height="800" width="800" viewBox="0 0 295.238 295.238" xmlns:v="https://vecta.io/nano"><path d="M285.714 247.495h0V99.875c0-10.505-8.543-19.048-19.048-19.048h-23.233c-.124-.424-.214-.862-.348-1.281l-4.095 1.281h-19.943v-7.705l-61.633-30.813L76.19 72.766v8.062H54.233l-2.267-.69c-.071.229-.114.462-.181.69H28.571c-10.505 0-19.048 8.543-19.048 19.048v147.619H0v19.048c0 10.505 8.543 19.048 19.048 19.048H276.19c10.505 0 19.048-8.543 19.048-19.048v-19.048h-9.524zM161.905 55.2l40.481 20.243-40.481 15.181V55.2zm0 45.594l47.619-17.857v52.09l-47.619-23.809v-10.424zm40.485 41.315l-59.533 22.324v-39.829l14.014-5.257 45.519 22.762zm-59.533-27.677v-6.495l9.524-3.571v6.495l-9.524 3.571zm9.524-60.066v39.829l-14.014 5.257-45.519-22.763 59.533-22.323zM85.714 83.771l47.619 23.809v10.424l-47.619 17.857v-52.09zm47.619 44.405V163.6l-40.481-20.243 40.481-15.181zm4.49 48.313l81.224-30.457V109.4h19.048c0 4.514-.333 9.048-.995 13.486l9.419 1.4a101.92 101.92 0 0 0 1.095-14.886h9.529v119.048H38.095V109.4H76.19v36.276l61.633 30.813zM19.048 99.875c0-5.252 4.271-9.524 9.524-9.524H49.5c-.281 1.452-.595 2.9-.81 4.357l9.424 1.39c.286-1.924.662-3.838 1.071-5.748H76.19v9.524H28.571v138.095h238.095V99.875h-47.619v-9.524h16.995c.371 1.724.733 3.457 1 5.195l9.414-1.443c-.19-1.257-.481-2.5-.719-3.752h20.929c5.252 0 9.524 4.271 9.524 9.524v147.619H161.905v9.524h-28.571v-9.524H19.048V99.875zm266.667 166.667h-.001c0 5.252-4.271 9.524-9.524 9.524H19.048c-5.252 0-9.524-4.271-9.524-9.524v-9.524H123.81c0 5.252 4.271 9.524 9.524 9.524h28.571c5.252 0 9.524-4.271 9.524-9.524h114.286v9.524zM91.033 38.794l-5.962-7.429c-3.871 3.11-7.548 6.538-10.919 10.186l6.995 6.462c3.053-3.3 6.377-6.399 9.886-9.219zm23.281-13.547l-3.505-8.852c-4.605 1.824-9.124 4.019-13.429 6.524l4.79 8.233a89.38 89.38 0 0 1 12.144-5.905zM72.733 58.604l-7.876-5.352a100.42 100.42 0 0 0-7.452 12.952l8.59 4.114c1.938-4.048 4.205-7.985 6.738-11.714zm164.834 7.052a100.01 100.01 0 0 0-7.524-12.895l-7.843 5.4a90.29 90.29 0 0 1 6.81 11.667l8.557-4.172zM57.143 109.585l-9.524.019c.01 4.986.39 9.995 1.129 14.886l9.419-1.424c-.667-4.429-1.015-8.967-1.024-13.481zm156.586-61.956l6.957-6.5c-3.386-3.629-7.081-7.038-10.976-10.124l-5.919 7.457a90.51 90.51 0 0 1 9.938 9.167zm-16.391-25.01a99.45 99.45 0 0 0-13.481-6.448l-3.457 8.876a90.93 90.93 0 0 1 12.2 5.833l4.738-8.261zm-27.786-10.805c-4.838-1.086-9.81-1.814-14.781-2.167l-.676 9.5a90.48 90.48 0 0 1 13.371 1.957l2.086-9.29zm-28.976 7.376l-.733-9.495a100.98 100.98 0 0 0-14.767 2.257l2.138 9.281a91.02 91.02 0 0 1 13.362-2.043zm69.434 168.361l-5.943-7.443a90.98 90.98 0 0 1-11.157 7.634l4.776 8.238c4.295-2.49 8.438-5.329 12.324-8.429zm-25.772 14.93l-3.486-8.862c-4.176 1.647-8.519 2.985-12.909 3.99l2.119 9.286a99.56 99.56 0 0 0 14.276-4.414zm46.029-36.773l-7.867-5.367c-2.533 3.715-5.371 7.272-8.433 10.572l6.981 6.476c3.386-3.652 6.524-7.576 9.319-11.681zm12.938-26.852l-9.105-2.8a88.81 88.81 0 0 1-4.933 12.586l8.581 4.133c2.167-4.489 4-9.171 5.457-13.919zm-115.62 58.797c-4.39-.99-8.738-2.324-12.924-3.962l-3.466 8.866c4.633 1.814 9.438 3.286 14.295 4.386l2.095-9.29zm27.605 11.461l-.71-9.495c-4.47.338-9.056.343-13.528.014l-.69 9.5a101.84 101.84 0 0 0 7.357.267 100.38 100.38 0 0 0 7.571-.286zm-52.709-21.278c-3.89-2.243-7.648-4.805-11.176-7.614l-5.934 7.448c3.895 3.1 8.048 5.933 12.348 8.414l4.762-8.248zm-37.405-21.969a100.33 100.33 0 0 0 9.333 11.652l6.971-6.486a90.8 90.8 0 0 1-8.448-10.552l-7.856 5.386zm-3.89-29.635l-9.095 2.819a99.75 99.75 0 0 0 5.486 13.9l8.571-4.152c-1.962-4.047-3.634-8.276-4.962-12.567z"/></svg>