<svg xmlns="http://www.w3.org/2000/svg" fill="#000000" height="800" width="800" viewBox="0 0 295.238 295.238" xmlns:v="https://vecta.io/nano"><path d="M276.19 52.38H19.048C8.543 52.38 0 60.924 0 71.429V223.81c0 10.505 8.543 19.048 19.048 19.048H276.19c10.505 0 19.048-8.543 19.048-19.048V71.429c0-10.505-8.543-19.049-19.048-19.049zm-123.81 9.524h123.81c5.253 0 9.524 4.271 9.524 9.524v100.876c-1.495-.533-3.086-.876-4.762-.876h-4.762v-68.639l-31.362-31.362h-82.924v100h-9.524V61.904zm19.049 138.095h95.238v14.286h-95.238v-14.286zm-4.762-9.523v-9.524h38.095v9.524h-38.095zm4.762-19.047V80.952h66.667v28.571h28.571v.001 61.905h-95.238zM247.619 100V87.685L259.933 100h-12.314zM142.858 214.284H28.571v-54.942l7.271 27.881c1.686 6.443 7.552 10.752 13.948 10.752 1.143 0 2.305-.138 3.462-.429l57.71-14.429c3.7-.924 6.814-3.243 8.762-6.529a14.09 14.09 0 0 0 1.529-10.814L99.124 80.952h43.733v95.867l-6.205 4.133H123.81v9.524h12.843l6.205 4.133v19.675zM91.3 88.695l15.69 60.157-66.947 16.738-15.69-60.157L91.3 88.695zm-69.352 7.523l-.648-2.49a4.64 4.64 0 0 1 .5-3.552c.643-1.086 1.667-1.848 2.881-2.148l34.624-8.657L82.4 73.594a4.76 4.76 0 0 1 1.119-.138c2.157 0 4.195 1.481 4.757 3.629l.624 2.395-66.952 16.738zm63.438 67.852l24.014-6.005 2.633 10.11a4.64 4.64 0 0 1-.5 3.552c-.643 1.086-1.667 1.848-2.881 2.148L89.4 178.689c.676-1.49 1.076-3.138 1.076-4.881 0-4.029-2.024-7.58-5.09-9.738zm-4.434 9.739a2.38 2.38 0 0 1-2.381 2.381c-1.314 0-2.381-1.067-2.381-2.381s1.067-2.381 2.381-2.381a2.38 2.38 0 0 1 2.381 2.381zm-9.604 9.396l-20.405 5.1c-2.538.629-5.224-.967-5.881-3.486l-2.614-10.01 25.571-6.39c-.833 1.624-1.352 3.438-1.352 5.39 0 3.839 1.857 7.219 4.681 9.396zm71.51-111.776H96.143c-3.071-5.581-9.605-8.681-16.062-7.071l-28.286 7.071H28.571c-4.952 0-8.99 3.814-9.438 8.652-2.262 1.205-4.186 2.967-5.529 5.233a14.09 14.09 0 0 0-1.529 10.814l6.971 26.705v91.452c0 5.252 4.271 9.524 9.524 9.524h114.286v9.524H19.048c-5.253 0-9.524-4.271-9.524-9.523V71.429c0-5.252 4.271-9.524 9.524-9.524h123.81v9.524zm10.966 109.523h3.319v9.524h-3.319l-7.143-4.762 7.143-4.762zm131.89 42.857c0 5.252-4.271 9.523-9.524 9.523H152.38v-9.524-23.809h9.524v23.81H276.19v-23.81h4.762c1.676 0 3.267-.343 4.762-.876v24.686zm-4.761-33.334h-66.667v-9.524h66.667a4.77 4.77 0 0 1 4.762 4.762 4.77 4.77 0 0 1-4.762 4.762z"/></svg>