<svg xmlns="http://www.w3.org/2000/svg" fill="#000000" width="800" height="800" viewBox="0 0 64 64" xmlns:v="https://vecta.io/nano"><path d="M35.014 31.833a1 1 0 1 0-.217-1.988c-6.493.704-9.581-1.688-11.026-3.82-2.02-2.98-2.064-7.282-.114-10.959 1.943-3.663 5.356-5.763 9.366-5.763 3.058 0 5.798 1.246 7.333 3.332 1.602 2.176 1.863 5.201.758 8.749-.434 1.392-1.849 3.218-3.094 3.578-.508.148-.909.094-1.224-.166-.362-.301-.492-.769-.481-.954.002-.012.003-.023.004-.034l1.096-10.956a1 1 0 0 0-.888-1.1c-.559-.061-1.042.339-1.101.888l-.097.909c-.017-.013-.032-.029-.05-.041-1.281-.921-3.077-1.011-4.805-.24-2.942 1.312-5.067 5.48-4.547 8.92.39 2.58 2.209 4.251 4.992 4.584 1.277.152 2.845-.225 4.008-1.085a3.28 3.28 0 0 0 .591.648c.824.684 1.909.879 3.057.549 2.009-.581 3.839-2.95 4.448-4.905 1.645-5.279.333-8.64-1.057-10.528-1.911-2.597-5.254-4.147-8.941-4.147-4.777 0-8.834 2.488-11.135 6.825-2.293 4.323-2.205 9.433.226 13.019 2.133 3.148 5.823 4.819 10.533 4.819a22.02 22.02 0 0 0 2.365-.132zm-.101-14.336l-.569 5.941c-.581.955-2.105 1.475-3.187 1.347-1.901-.228-2.995-1.203-3.251-2.898-.385-2.545 1.259-5.848 3.384-6.795a3.75 3.75 0 0 1 1.511-.343c.503 0 .96.127 1.312.38.63.453.906 1.271.802 2.367zm24.393 4.156l-7.264-4.498V2a1 1 0 0 0-1-1H12.477a1 1 0 0 0-1 1v15.016l-6.916 4.735c-1.525 1.304-2.365 3.163-2.365 5.233v29.025A7 7 0 0 0 9.186 63h45.628a6.96 6.96 0 0 0 4.851-1.968c1.321-1.281 2.139-3.057 2.139-5.023V26.984c0-1.745-.654-4.187-2.499-5.331zm-7.264-2.146l5.059 3.133-5.059 4.413v-7.546zm6.742 4.319c.696.8 1.021 2.077 1.021 3.158v29.025a4.95 4.95 0 0 1-.929 2.88L39.591 40.567l19.193-16.74zM13.477 3h36.565v25.797L31.998 44.536 13.477 28.389V3zm-2 16.384v7.262L6.779 22.55l4.698-3.167zM4.195 56.009V26.984c0-1.193.38-2.241 1.078-3.092l19.851 17.306-19.343 18.44c-.97-.911-1.586-2.196-1.586-3.629zM9.186 61c-.572 0-1.114-.117-1.626-.295l19.079-18.187 4.702 4.099a1 1 0 0 0 .657.246c.234 0 .469-.082.657-.247l5.422-4.729 19.33 18.366a4.94 4.94 0 0 1-2.593.747H9.186z"/></svg>