<svg width="165" height="165" xmlns="http://www.w3.org/2000/svg">
 <g>
  <title>Layer 1</title>
  <path d="m214.1,32l198.6,0l0,160l-198.6,0l0,-160z" id="svg_1"/>
  <path d="m73,40.9c-0.3,-0.6 -1,-1 -1.9,-1l-47.7,0l-5.3,-12.4c-0.3,-0.7 -1.4,-1.1 -2.4,-1c-1,0.3 -1.6,1 -1.3,1.8l5,11.6l-6,0c-0.6,0 -1.2,0.2 -1.5,0.6s-0.5,0.8 -0.3,1.2l25.2,57.1c0.3,0.6 1,1 1.9,1l6.1,0l14.4,34c0.3,0.5 1,1 1.9,1a2.8,2.8 0 0 0 0.5,-0.1c1,-0.3 1.6,-1 1.3,-1.8l-13.9,-33.1l48.6,0c1,0 2,-0.6 2,-1.4a1,1 0 0 0 -0.3,-0.7l-26.3,-56.8zm-33,56.1l-24,-54.3l4.5,0l23.1,54.3l-3.6,0zm7.7,0l-23.1,-54.3l45.1,0l25.1,54.3l-47.1,0zm76,-27.1l22.9,-22.2c0.4,-0.5 0.5,-1 0.1,-1.5s-1,-0.7 -1.7,-0.7l-62.2,0c-0.6,0 -1.2,0.2 -1.5,0.5s-0.5,0.8 -0.3,1.2l23.5,56.5c0.2,0.6 1,1 1.8,1l44.8,0c1.1,0 2,-0.6 2,-1.4c0,-0.3 -0.2,-0.7 -0.5,-1l-28.9,-32.4zm-16,32l-22.3,-53.7l55.8,0l-21.4,20.8c-0.4,0.5 -0.5,1.1 0,1.6l27.8,31.4l-39.9,-0.1z" fill="#000000" id="svg_2"/>
 </g>

</svg>