<svg xmlns="http://www.w3.org/2000/svg" style="background-color:white" viewBox="0 0 500 150"><path d="M-2.9-3h198.6v160H-2.9z"/><path d="M90 35.9c-.3-.6-1-1-1.9-1H40.4l-5.3-12.4c-.3-.7-1.4-1.1-2.4-1-1 .3-1.6 1-1.3 1.8l5 11.6h-6c-.6 0-1.2.2-1.5.6s-.5.8-.3 1.2l25.2 57.1c.3.6 1 1 1.9 1h6.1l14.4 34c.3.5 1 1 1.9 1a2.8 2.8 0 0 0 .5-.1c1-.3 1.6-1 1.3-1.8L66 94.8h48.6c1 0 2-.6 2-1.4a1 1 0 0 0-.3-.7zM57 92 33 37.7h4.5L60.6 92zm7.7 0L41.6 37.7h45.1L111.8 92zm76-27.1 22.9-22.2c.4-.5.5-1 .1-1.5s-1-.7-1.7-.7H99.8c-.6 0-1.2.2-1.5.5s-.5.8-.3 1.2l23.5 56.5c.2.6 1 1 1.8 1h44.8c1.1 0 2-.6 2-1.4 0-.3-.2-.7-.5-1zm-16 32-22.3-53.7h55.8L136.8 64c-.4.5-.5 1.1 0 1.6L164.6 97z" fill="#fff"/><text xml:space="preserve" x="207.8" y="83.1" font-weight="bold" font-size="50.8" font-family="monospace"><tspan x="207.8" y="83.1">Blackflag</tspan></text><text xml:space="preserve" x="207.8" y="123.8" font-size="31.8" font-family="monospace"><tspan x="207.8" y="123.8">Laboratories</tspan></text></svg>
