<svg xmlns="http://www.w3.org/2000/svg" fill="#000000" width="800" height="800" viewBox="0 0 64 64" xmlns:v="https://vecta.io/nano"><path d="M37.063 18.062h-.06c-.552 0-.97.448-.97 1s.477 1 1.03 1a1 1 0 1 0 0-2zm8.116 0h-.056c-.552 0-.972.448-.972 1s.476 1 1.028 1a1 1 0 1 0 0-2zm8.119 0h-.06c-.552 0-.97.448-.97 1s.477 1 1.03 1a1 1 0 1 0 0-2zm-8.103 27.865c-5.149-2.904-6.691-2.666-10.617-.447-2.015 1.339-4.44.523-8.656-2.911a33.74 33.74 0 0 1-2.469-2.232 33.16 33.16 0 0 1-2.234-2.472c-3.178-3.9-4.044-7.459-3.011-8.532 3.042-3.271 2.352-5.957-.334-10.717-1.617-3.059-3.393-6.104-5.757-6.803-1.714-.503-4.259.815-5.017 1.318-1.949 1.298-3.8 3.595-4.831 5.994-1.896 4.414-1.393 9.733-.29 13.24 1.812 5.749 6.161 12.406 11.635 17.809 5.404 5.476 12.062 9.824 17.808 11.631 1.815.573 4.117.984 6.528.984 2.244 0 4.583-.356 6.712-1.271 2.399-1.033 4.694-2.884 5.989-4.831.504-.755 1.828-3.3 1.318-5.021-.695-2.359-3.74-4.136-6.775-5.74zm-.959 1.755c1.852.979 5.3 2.802 5.815 4.551.106.356-.023 1.006-.26 1.681l-13.529-7.089c2.545-1.409 3.575-1.624 7.974.857zM11.551 13.731c1.752.518 3.575 3.966 4.567 5.843 2.621 4.647 2.613 6.113.927 8.058L9.748 14.036c.556-.206 1.105-.341 1.499-.341.116 0 .219.012.304.037zM43.873 59.68c-3.917 1.684-8.831 1.169-11.85.216-5.452-1.714-11.803-5.876-16.99-11.133-5.264-5.194-9.427-11.546-11.146-17-.95-3.02-1.462-7.935.22-11.85.844-1.965 2.312-3.829 3.87-4.948L15.9 29.728c-.436 2.373.919 5.904 3.768 9.4a35.43 35.43 0 0 0 2.371 2.623 35.55 35.55 0 0 0 2.62 2.369c3.088 2.515 6.33 4.626 9.367 3.791l14.871 7.792c-1.107 1.597-3.014 3.113-5.023 3.978zm17.082-48.909C56.384 2.059 45.576-1.31 36.86 3.257h-.001c-8.712 4.572-12.082 15.381-7.514 24.095a18.04 18.04 0 0 0 1.127 1.861l-2.701 4.63a1 1 0 0 0 .02 1.04c.2.316.56.491.932.46l7.75-.685a17.82 17.82 0 0 0 8.675 2.263c2.837 0 5.679-.684 8.293-2.055 8.713-4.572 12.083-15.381 7.513-24.095zm-8.442 22.324c-4.847 2.543-10.572 2.421-15.315-.325a1 1 0 0 0-.501-.135c-.029 0-.059.002-.088.004l-6.134.542 2.053-3.519a1 1 0 0 0-.062-1.101 16.19 16.19 0 0 1-1.349-2.138c-4.057-7.737-1.064-17.335 6.672-21.396h-.001C45.527.97 55.124 3.965 59.184 11.7s1.064 17.335-6.671 21.395z"/></svg>